<svg width="140" height="48" viewBox="0 0 140 48" fill="none" xmlns="http://www.w3.org/2000/svg">
<path d="M64.5094 25.9772C65.3339 26.8017 65.7462 28.0362 65.7462 29.6808V36.078H62.5087V30.1794C62.564 29.4748 62.3691 28.7732 61.9583 28.1981C61.5627 27.7537 60.9853 27.5151 60.3914 27.5506C59.7098 27.5179 59.0486 27.7881 58.5849 28.2887C58.1056 28.9129 57.8749 29.6927 57.9374 30.4772V36.0845H54.7V30.1794C54.7 28.4269 53.9942 27.5484 52.5827 27.5441C51.907 27.5128 51.2522 27.7832 50.7956 28.2822C50.3141 28.9053 50.0831 29.686 50.1481 30.4708V36.078H46.9106V24.9024H50.0057V26.1973C50.4243 25.7262 50.9446 25.3565 51.5273 25.116C52.1595 24.8648 52.8347 24.7394 53.5151 24.747C54.2537 24.7356 54.985 24.8951 55.6518 25.2132C56.2616 25.5146 56.7784 25.9755 57.1475 26.547C57.608 25.9623 58.2034 25.4979 58.8828 25.1937C59.6038 24.8729 60.3857 24.7117 61.1749 24.7211C62.4121 24.6616 63.6189 25.1162 64.5094 25.9772Z" fill="#227CFE"/>
<path fill-rule="evenodd" clip-rule="evenodd" d="M79.9427 24.0088C79.4061 23.1979 78.6427 22.5629 77.7477 22.1829C76.688 21.7332 75.5446 21.5146 74.3937 21.5419H68.1001V36.091H71.4671V32.083H74.3937C75.545 32.1082 76.6885 31.8875 77.7477 31.4355C78.6454 31.0599 79.4099 30.4239 79.9427 29.6096C80.9609 27.8815 80.9609 25.7369 79.9427 24.0088ZM77.311 26.7866C77.311 27.4932 77.0223 28.1692 76.5117 28.6578V28.6772C75.8409 29.1518 75.0261 29.3784 74.2066 29.3182H71.4677V24.2678H74.2066C75.0268 24.2095 75.8418 24.4384 76.5117 24.9153C77.0223 25.4039 77.311 26.0799 77.311 26.7866Z" fill="#227CFE"/>
<path fill-rule="evenodd" clip-rule="evenodd" d="M82.1086 33.4622C82.6335 34.3345 83.3915 35.0431 84.2971 35.5082C85.275 36.0144 86.3623 36.2723 87.4634 36.2593C88.5735 36.2799 89.671 36.0217 90.6555 35.5082C91.558 35.041 92.3133 34.3328 92.8375 33.4622C93.8902 31.623 93.8902 29.3639 92.8375 27.5247C92.3133 26.6541 91.558 25.9458 90.6555 25.4786C89.6698 24.9697 88.5724 24.7159 87.4634 24.7405C86.3634 24.7235 85.2761 24.9769 84.2971 25.4786C83.3915 25.9437 82.6335 26.6523 82.1086 27.5247C81.0559 29.3639 81.0559 31.623 82.1086 33.4622ZM89.5152 28.211C90.5906 29.5305 90.5906 31.424 89.5152 32.7434C88.3777 33.8675 86.5477 33.8675 85.4101 32.7434C84.3169 31.4304 84.3169 29.5241 85.4101 28.211C86.5477 27.087 88.3777 27.087 89.5152 28.211Z" fill="#227CFE"/>
<path d="M99.7906 31.7269L98.2301 33.2679V36.1104H94.9927V20.6678H98.2301V29.3895L102.957 24.9024H106.842L102.193 29.642L107.256 36.078H103.332L99.7906 31.7269Z" fill="#227CFE"/>
<path d="M112.793 31.7269L111.232 33.2679V36.1104H107.995V20.6678H111.232V29.3895L115.972 24.9024H119.857L115.208 29.642L120.278 36.078H116.347L112.793 31.7269Z" fill="#227CFE"/>
<path fill-rule="evenodd" clip-rule="evenodd" d="M122.762 31.4096H131.219C131.264 30.8657 131.283 30.5744 131.283 30.5485C131.307 29.4784 131.046 28.4212 130.526 27.4858C130.039 26.6222 129.313 25.9181 128.434 25.4592C126.54 24.5065 124.303 24.5185 122.419 25.4916C121.53 25.9646 120.791 26.6752 120.282 27.5441C119.76 28.4417 119.491 29.4646 119.505 30.5031C119.486 31.5482 119.759 32.5778 120.295 33.4751C120.83 34.3584 121.608 35.0688 122.536 35.5212C123.577 36.0293 124.725 36.2823 125.883 36.2593C127.903 36.2593 129.451 35.6442 130.526 34.414L128.803 32.5427C128.433 32.903 127.992 33.1829 127.508 33.365C127.013 33.547 126.488 33.6348 125.961 33.624C125.209 33.6502 124.469 33.4395 123.844 33.0219C123.291 32.6421 122.904 32.0653 122.762 31.4096ZM122.725 29.5449C122.803 28.8821 123.129 28.2735 123.638 27.842C124.156 27.407 124.814 27.1767 125.49 27.1945C126.157 27.1806 126.807 27.4109 127.316 27.842C127.815 28.2788 128.134 28.8859 128.21 29.5449H122.725Z" fill="#227CFE"/>
<path d="M140 35.5406C139.647 35.7924 139.249 35.9728 138.828 36.0715C138.349 36.1897 137.857 36.2484 137.364 36.2464C136.242 36.3187 135.136 35.9544 134.276 35.2298C133.503 34.4338 133.107 33.3451 133.188 32.2384V27.6477H131.446V25.1549H133.169V22.4354H136.406V25.1549H139.216V27.6477H136.432V32.1801C136.406 32.5792 136.539 32.9723 136.801 33.2744C137.073 33.5405 137.444 33.6792 137.824 33.6564C138.29 33.6684 138.747 33.5223 139.119 33.242L140 35.5406Z" fill="#227CFE"/>
<path d="M47.5634 41.9313V43.8738H50.1145V44.3205H47.5634V46.4119H47.0454V41.4781H50.4253V41.9313H47.5634Z" fill="#2062AF"/>
<path fill-rule="evenodd" clip-rule="evenodd" d="M53.9868 44.1133C54.0163 43.7161 53.875 43.3251 53.5983 43.0385C53.2922 42.7841 52.9014 42.6546 52.504 42.6759C52.2228 42.6763 51.9432 42.7199 51.6753 42.8054C51.4398 42.8903 51.2208 43.0151 51.0278 43.1745L51.2544 43.55C51.415 43.4073 51.602 43.2973 51.8047 43.2263C52.0131 43.1545 52.2319 43.1173 52.4522 43.1162C52.7335 43.1035 53.009 43.1984 53.2228 43.3817C53.405 43.5727 53.5009 43.8302 53.4882 44.0939V44.314H52.3098C51.9243 44.2813 51.5395 44.3843 51.222 44.6054C50.9981 44.7947 50.8739 45.0765 50.8853 45.3695C50.8729 45.672 51.0081 45.9617 51.2479 46.1464C51.5312 46.3574 51.8793 46.4628 52.2321 46.4443C52.5003 46.453 52.7667 46.3975 53.0091 46.2824C53.2174 46.1854 53.3913 46.0273 53.5077 45.8292V46.4054H53.9868V44.1133ZM53.4884 45.2982C53.3993 45.5267 53.2408 45.7214 53.0352 45.8551C52.8151 45.981 52.563 46.0395 52.31 46.0234C52.0669 46.0371 51.8259 45.9712 51.6236 45.8356C51.4595 45.7185 51.3667 45.5255 51.3776 45.3241C51.3776 44.8968 51.6754 44.6766 52.3229 44.6766H53.4884V45.2982Z" fill="#2062AF"/>
<path d="M55.4175 46.3148C55.182 46.2486 54.9619 46.1363 54.77 45.9846L54.9966 45.5896C55.1718 45.7241 55.369 45.827 55.5794 45.8939C55.8165 45.9667 56.063 46.0038 56.311 46.004C56.5709 46.0215 56.8306 45.9678 57.0621 45.8486C57.2174 45.7544 57.3092 45.5833 57.3017 45.4018C57.3074 45.2803 57.2602 45.1622 57.1722 45.0781C57.0741 44.9959 56.9592 44.9362 56.8355 44.9032C56.6931 44.8644 56.5182 44.8256 56.2916 44.7867C56.0463 44.7475 55.804 44.6913 55.5664 44.6184C55.3841 44.5618 55.2207 44.4566 55.0938 44.314C54.9602 44.1502 54.8932 43.9422 54.906 43.7313C54.8989 43.4308 55.0422 43.1466 55.288 42.9737C55.6053 42.757 55.9858 42.6522 56.3693 42.6759C56.6121 42.6763 56.8538 42.709 57.088 42.773C57.2964 42.8229 57.4953 42.9059 57.6773 43.0191L57.4571 43.4205C57.1355 43.206 56.7558 43.0953 56.3693 43.1032C56.1154 43.0855 55.8621 43.1465 55.6441 43.2781C55.4919 43.372 55.4008 43.5395 55.4046 43.7183C55.3985 43.8451 55.4482 43.9681 55.5405 44.055C55.6386 44.1437 55.7562 44.208 55.8837 44.2428C56.0689 44.2948 56.257 44.3358 56.447 44.3658C56.6872 44.4094 56.925 44.4656 57.1593 44.5342C57.333 44.5905 57.4892 44.6908 57.6125 44.8256C57.7489 44.9804 57.8187 45.1828 57.8068 45.3889C57.8126 45.6988 57.6584 45.9899 57.3988 46.1594C57.063 46.3658 56.6723 46.4652 56.2787 46.4443C55.9868 46.4438 55.6966 46.4002 55.4175 46.3148Z" fill="#2062AF"/>
<path d="M60.6303 46.1853C60.5278 46.2725 60.4089 46.3386 60.2807 46.3795C60.1396 46.4205 59.9937 46.4422 59.8468 46.4443C59.5515 46.4632 59.2613 46.3602 59.044 46.1594C58.8458 45.9456 58.743 45.6605 58.7591 45.3694V43.1291H58.1116V42.7342H58.7591V41.8924H59.2641V42.7342H60.3907V43.1615H59.2641V45.3241C59.2504 45.5071 59.3084 45.6883 59.426 45.8292C59.555 45.9505 59.7282 46.0137 59.9051 46.004C60.0119 46.011 60.1192 46 60.2224 45.9716C60.3139 45.9429 60.398 45.8943 60.4684 45.8292L60.6303 46.1853Z" fill="#2062AF"/>
<path fill-rule="evenodd" clip-rule="evenodd" d="M63.7198 45.091H66.4651L67.0544 46.386H67.6047L65.3515 41.4586H64.8399L62.5867 46.386H63.1306L63.7198 45.091ZM65.0923 42.0219L66.2773 44.6702L63.9074 44.6766L65.0923 42.0219Z" fill="#2062AF"/>
<path fill-rule="evenodd" clip-rule="evenodd" d="M71.761 43.5629C71.6083 43.292 71.3844 43.0681 71.1135 42.9155C70.8221 42.7644 70.496 42.6929 70.1682 42.7083C69.8771 42.7024 69.5895 42.7715 69.3329 42.909C69.0861 43.0382 68.88 43.2331 68.7372 43.4723V42.7342H68.2581V47.7198H68.7631V45.6608C68.9058 45.8928 69.1097 46.081 69.3523 46.2047C69.6057 46.3305 69.8852 46.3949 70.1682 46.3925C70.499 46.3985 70.8254 46.3158 71.1135 46.1529C71.3844 46.0002 71.6083 45.7763 71.761 45.5054C72.0713 44.8951 72.0713 44.1733 71.761 43.5629ZM71.3338 45.3112C71.2189 45.525 71.0461 45.7023 70.8353 45.8227C70.6211 45.9402 70.3802 46.0004 70.136 45.9975C69.8875 46.0012 69.6423 45.941 69.4237 45.8227C69.2165 45.6997 69.0465 45.523 68.9316 45.3112C68.8097 45.0774 68.7474 44.8172 68.7503 44.5536C68.7474 44.2941 68.8097 44.0381 68.9316 43.809C69.0465 43.5972 69.2165 43.4204 69.4237 43.2975C69.6405 43.174 69.8866 43.1114 70.136 43.1162C70.3812 43.1125 70.6228 43.1751 70.8353 43.2975C71.0461 43.4179 71.2189 43.5951 71.3338 43.809C71.4557 44.0381 71.5181 44.2941 71.5151 44.5536C71.5181 44.8172 71.4558 45.0774 71.3338 45.3112Z" fill="#2062AF"/>
<path fill-rule="evenodd" clip-rule="evenodd" d="M76.4727 43.563C76.3211 43.2912 76.0969 43.067 75.8252 42.9155C75.5341 42.7635 75.2078 42.692 74.8798 42.7083C74.5888 42.7024 74.3012 42.7715 74.0446 42.909C73.7978 43.0382 73.5916 43.2331 73.4489 43.4723V42.7342H72.9697V47.7198H73.4683V45.6608C73.6153 45.8916 73.8208 46.0793 74.064 46.2047C74.3169 46.332 74.5967 46.3964 74.8798 46.3925C75.2107 46.3985 75.5371 46.3158 75.8252 46.1529C76.0961 46.0002 76.32 45.7763 76.4727 45.5054C76.7829 44.8951 76.7829 44.1733 76.4727 43.563ZM76.0504 45.3112C75.9354 45.525 75.7627 45.7023 75.5518 45.8227C75.3353 45.9402 75.0924 46.0004 74.846 45.9975C74.5996 46.0013 74.3564 45.941 74.1403 45.8227C73.9318 45.7013 73.7614 45.5242 73.6482 45.3112C73.5233 45.0785 73.4609 44.8175 73.4669 44.5536C73.4607 44.2938 73.5233 44.0369 73.6482 43.809C73.7614 43.596 73.9318 43.4188 74.1403 43.2975C74.3548 43.1743 74.5987 43.1116 74.846 43.1162C75.0933 43.1123 75.3371 43.1749 75.5518 43.2975C75.7627 43.4179 75.9354 43.5951 76.0504 43.809C76.1703 44.0386 76.2304 44.2947 76.2252 44.5536C76.2304 44.8167 76.1703 45.077 76.0504 45.3112Z" fill="#2062AF"/>
<path d="M78.6957 42.8637C78.9654 42.7317 79.2632 42.6672 79.5634 42.6759V43.1615H79.4404C79.0978 43.1437 78.7644 43.2761 78.5274 43.5241C78.2915 43.8033 78.1732 44.163 78.1972 44.5277V46.4119H77.7051V42.7342H78.1777V43.4594C78.2842 43.2117 78.4653 43.0035 78.6957 42.8637Z" fill="#2062AF"/>
<path fill-rule="evenodd" clip-rule="evenodd" d="M80.2626 45.5507C80.4268 45.8239 80.6617 46.0476 80.9425 46.1982C81.2373 46.3627 81.5698 46.4475 81.9073 46.4443C82.2448 46.4475 82.5773 46.3627 82.872 46.1982C83.1419 46.0443 83.3656 45.8207 83.5195 45.5507C83.8453 44.9442 83.8453 44.2148 83.5195 43.6083C83.3656 43.3384 83.1419 43.1148 82.872 42.9608C82.5767 42.7986 82.2442 42.7161 81.9073 42.7212C81.5701 42.7142 81.2372 42.7969 80.9425 42.9608C80.6617 43.1114 80.4268 43.3351 80.2626 43.6083C79.9369 44.2148 79.9369 44.9442 80.2626 45.5507ZM83.0988 45.3112C82.9873 45.5233 82.8192 45.7004 82.6131 45.8227C82.1691 46.0553 81.6392 46.0553 81.1951 45.8227C80.9879 45.6998 80.8179 45.523 80.7031 45.3112C80.4609 44.8374 80.4609 44.2763 80.7031 43.8025C80.8179 43.5907 80.9879 43.4139 81.1951 43.291C81.6392 43.0584 82.1691 43.0584 82.6131 43.291C82.8192 43.4133 82.9873 43.5904 83.0988 43.8025C83.3409 44.2763 83.3409 44.8374 83.0988 45.3112Z" fill="#2062AF"/>
<path d="M87.7339 42.7342L86.1216 46.4054H85.6036L83.9331 42.7342H84.4511L85.8432 45.8939L87.2418 42.7342H87.7339Z" fill="#2062AF"/>
<path fill-rule="evenodd" clip-rule="evenodd" d="M91.0428 44.1133C91.0723 43.7161 90.9309 43.3251 90.6543 43.0385C90.3416 42.7778 89.9403 42.6479 89.5341 42.6759C89.2528 42.6752 88.9731 42.7189 88.7053 42.8054C88.4695 42.8895 88.2504 43.0145 88.0578 43.1745L88.2845 43.55C88.4484 43.4085 88.6372 43.2988 88.8413 43.2263C89.0493 43.1531 89.2683 43.1159 89.4888 43.1162C89.7718 43.0947 90.0523 43.1828 90.2723 43.3622C90.4624 43.5562 90.5593 43.8231 90.5377 44.0939V44.314H89.3658C88.9803 44.2812 88.5955 44.3843 88.278 44.6054C88.0525 44.794 87.926 45.0756 87.9348 45.3694C87.925 45.6729 88.0625 45.9623 88.3039 46.1464C88.5862 46.3594 88.9351 46.465 89.2881 46.4443C89.5562 46.4518 89.8223 46.3963 90.0651 46.2824C90.272 46.1834 90.4454 46.0258 90.5636 45.8292V46.4054H91.0428V44.1133ZM90.5378 45.2982C90.4508 45.526 90.2945 45.7207 90.091 45.8551H90.1169C89.8894 45.986 89.6274 46.0447 89.3658 46.0234C89.1207 46.0366 88.8779 45.9708 88.673 45.8356C88.5116 45.7161 88.4196 45.5248 88.4269 45.3241C88.4269 44.8925 88.7442 44.6766 89.3788 44.6766H90.5378V45.2982Z" fill="#2062AF"/>
<path d="M92.3691 41.1867H92.8677V46.4054H92.3691V41.1867Z" fill="#2062AF"/>
<path d="M94.5381 45.7838C94.6059 45.858 94.643 45.9552 94.6417 46.0558C94.6502 46.1159 94.6502 46.1769 94.6417 46.2371C94.6249 46.3146 94.6011 46.3905 94.5704 46.4637L94.2726 47.4349H93.8906L94.1301 46.4184C94.0563 46.3944 93.9925 46.3466 93.9488 46.2824C93.8978 46.2183 93.8724 46.1375 93.8776 46.0558C93.8722 45.9552 93.9089 45.8568 93.9789 45.7844C94.0489 45.7119 94.1459 45.6718 94.2467 45.6738C94.3553 45.6657 94.4619 45.7059 94.5381 45.7838Z" fill="#2062AF"/>
<path d="M97.5384 41.4781H98.0564V46.4054H97.5384V41.4781Z" fill="#2062AF"/>
<path d="M102.497 43.0838C102.791 43.403 102.941 43.8292 102.911 44.2622V46.4054H102.406V44.3076C102.43 43.9882 102.327 43.6722 102.121 43.427C101.901 43.217 101.603 43.109 101.299 43.1291C100.947 43.1132 100.603 43.2418 100.347 43.4853C100.102 43.7492 99.9774 44.1035 100.004 44.463V46.4054H99.499V42.7342H99.9782V43.3817C100.113 43.1551 100.311 42.9728 100.548 42.8572C100.809 42.7278 101.098 42.6634 101.39 42.6694C101.8 42.6497 102.2 42.7995 102.497 43.0838Z" fill="#2062AF"/>
<path d="M104.341 46.3148C104.106 46.2476 103.886 46.1355 103.693 45.9846L103.92 45.5896C104.095 45.7241 104.292 45.827 104.503 45.8939C104.742 45.9667 104.991 46.0038 105.241 46.004C105.499 46.0216 105.756 45.9679 105.985 45.8486C106.142 45.7551 106.236 45.5843 106.232 45.4018C106.237 45.2789 106.187 45.16 106.096 45.0781C105.997 44.9959 105.883 44.9362 105.759 44.9033C105.58 44.855 105.398 44.8161 105.215 44.7867C104.97 44.746 104.728 44.6898 104.49 44.6184C104.31 44.5602 104.149 44.4551 104.024 44.314C103.885 44.1529 103.815 43.9435 103.829 43.7313C103.825 43.4299 103.97 43.146 104.218 42.9737C104.533 42.7571 104.911 42.6522 105.293 42.6759C105.535 42.6763 105.777 42.709 106.011 42.773C106.222 42.8229 106.423 42.906 106.607 43.0191L106.387 43.4205C106.063 43.2051 105.681 43.0944 105.293 43.1032C105.041 43.086 104.79 43.147 104.574 43.2781C104.42 43.3714 104.327 43.5385 104.328 43.7183C104.322 43.8464 104.374 43.9704 104.47 44.055C104.566 44.1436 104.681 44.208 104.807 44.2428C104.992 44.2948 105.18 44.3358 105.37 44.3658C105.611 44.4079 105.849 44.4641 106.083 44.5342C106.258 44.5903 106.417 44.6906 106.542 44.8256C106.674 44.9828 106.741 45.1841 106.73 45.3889C106.736 45.6973 106.585 45.9876 106.329 46.1594C105.991 46.3671 105.598 46.4665 105.202 46.4443C104.91 46.4444 104.62 46.4007 104.341 46.3148Z" fill="#2062AF"/>
<path d="M109.548 46.1853C109.447 46.2751 109.328 46.3414 109.198 46.3795C109.057 46.4214 108.911 46.4432 108.764 46.4443C108.469 46.4617 108.18 46.3589 107.962 46.1594C107.765 45.9449 107.665 45.6597 107.683 45.3694V43.1291H107.036V42.7342H107.683V41.8924H108.182V42.7342H109.308V43.1615H108.182V45.3241C108.17 45.5079 108.231 45.6889 108.35 45.8292C108.478 45.9489 108.648 46.0119 108.823 46.004C108.924 46.003 109.025 45.9855 109.121 45.9522C109.214 45.923 109.3 45.8745 109.373 45.8097L109.548 46.1853Z" fill="#2062AF"/>
<path fill-rule="evenodd" clip-rule="evenodd" d="M113.194 44.1133C113.222 43.7175 113.084 43.3279 112.812 43.0385C112.494 42.7742 112.085 42.6442 111.673 42.6759C111.389 42.6758 111.108 42.7195 110.837 42.8054C110.602 42.8903 110.383 43.0151 110.19 43.1745L110.417 43.55C110.58 43.4073 110.769 43.2973 110.973 43.2263C111.181 43.1531 111.4 43.1159 111.621 43.1162C111.904 43.0947 112.184 43.1828 112.404 43.3622C112.592 43.558 112.688 43.8235 112.67 44.0939V44.314H111.524C111.138 44.2812 110.753 44.3843 110.436 44.6054C110.208 44.7921 110.081 45.075 110.093 45.3694C110.084 45.6713 110.218 45.9596 110.455 46.1464C110.741 46.3584 111.091 46.4637 111.446 46.4443C111.714 46.4518 111.98 46.3963 112.223 46.2824C112.428 46.1833 112.6 46.0256 112.715 45.8292V46.4054H113.194V44.1133ZM112.67 45.3241C112.585 45.5389 112.439 45.7236 112.249 45.855C112.021 45.9838 111.759 46.0423 111.498 46.0234C111.253 46.0375 111.01 45.9716 110.805 45.8356C110.644 45.7161 110.552 45.5248 110.559 45.3241C110.559 44.8925 110.876 44.6766 111.511 44.6766H112.67V45.3241Z" fill="#2062AF"/>
<path d="M117.492 43.0838C117.789 43.4014 117.939 43.8288 117.906 44.2622V46.4054H117.408V44.3076C117.429 43.9874 117.324 43.6716 117.116 43.427C116.896 43.217 116.598 43.109 116.294 43.1291C115.943 43.1087 115.599 43.2381 115.349 43.4853C115.104 43.7502 114.978 44.1031 114.999 44.463V46.4054H114.5V42.7342H114.98V43.3817C115.114 43.1569 115.309 42.975 115.543 42.8572C115.805 42.7285 116.093 42.6642 116.385 42.6694C116.795 42.6497 117.195 42.7995 117.492 43.0838Z" fill="#2062AF"/>
<path d="M121.159 46.1853C121.058 46.2751 120.939 46.3414 120.809 46.3795C120.671 46.421 120.527 46.4428 120.382 46.4443C120.087 46.4632 119.796 46.3602 119.579 46.1594C119.381 45.9456 119.278 45.6605 119.294 45.3694V43.1291H118.647V42.7342H119.294V41.8924H119.793V42.7342H120.919V43.1615H119.793V45.3241C119.782 45.5079 119.842 45.6889 119.961 45.8292C120.089 45.9489 120.259 46.0119 120.434 46.004C120.535 46.0036 120.636 45.9861 120.732 45.9522C120.825 45.923 120.911 45.8745 120.984 45.8097L121.159 46.1853Z" fill="#2062AF"/>
<path d="M123.902 41.4781H124.427V45.9716H127.185V46.4184H123.902V41.4781Z" fill="#2062AF"/>
<path fill-rule="evenodd" clip-rule="evenodd" d="M127.736 45.5507C127.89 45.8201 128.114 46.0435 128.383 46.1982C128.988 46.5312 129.721 46.5312 130.326 46.1982C130.595 46.0435 130.818 45.8201 130.973 45.5507C131.29 44.942 131.29 44.217 130.973 43.6083C130.818 43.3389 130.595 43.1155 130.326 42.9608C129.718 42.6373 128.99 42.6373 128.383 42.9608C128.114 43.1155 127.89 43.3389 127.736 43.6083C127.41 44.2148 127.41 44.9442 127.736 45.5507ZM130.545 45.3112C130.434 45.5257 130.263 45.7033 130.053 45.8227C129.611 46.0552 129.083 46.0552 128.642 45.8227C128.432 45.7033 128.261 45.5257 128.149 45.3112C127.907 44.8374 127.907 44.2763 128.149 43.8025C128.261 43.588 128.432 43.4104 128.642 43.291C129.083 43.0585 129.611 43.0585 130.053 43.291C130.263 43.4104 130.434 43.588 130.545 43.8025C130.778 44.2784 130.778 44.8353 130.545 45.3112Z" fill="#2062AF"/>
<path fill-rule="evenodd" clip-rule="evenodd" d="M134.968 44.1133C134.997 43.7161 134.856 43.3251 134.579 43.0385C134.268 42.7794 133.87 42.6496 133.466 42.6759C133.184 42.6752 132.905 42.7189 132.637 42.8054C132.39 42.886 132.159 43.0111 131.957 43.1745L132.184 43.55C132.348 43.4085 132.536 43.2988 132.74 43.2263C132.959 43.1494 133.189 43.1121 133.42 43.1162C133.701 43.0944 133.98 43.1826 134.197 43.3622C134.389 43.5556 134.488 43.8222 134.469 44.0939V44.314H133.291C132.905 44.2813 132.521 44.3843 132.203 44.6054C131.978 44.794 131.851 45.0756 131.86 45.3695C131.85 45.6729 131.988 45.9623 132.229 46.1464C132.511 46.3594 132.86 46.465 133.213 46.4443C133.481 46.4518 133.747 46.3963 133.99 46.2824C134.197 46.1834 134.37 46.0258 134.489 45.8292V46.4054H134.968V44.1133ZM134.489 45.2982C134.397 45.5254 134.239 45.7196 134.035 45.8551C133.815 45.981 133.563 46.0395 133.31 46.0234C133.065 46.0366 132.822 45.9708 132.617 45.8356C132.456 45.7162 132.364 45.5248 132.371 45.3241C132.371 44.8925 132.689 44.6766 133.323 44.6766H134.489V45.2982Z" fill="#2062AF"/>
<path d="M139.269 43.0838C139.56 43.4041 139.708 43.8301 139.677 44.2622V46.4054H139.178V44.3076C139.199 43.9874 139.094 43.6716 138.887 43.427C138.667 43.2156 138.368 43.1074 138.064 43.1291C137.714 43.115 137.373 43.2435 137.119 43.4853C136.874 43.7502 136.748 44.1031 136.769 44.463V46.4054H136.271V42.7342H136.75V43.3817C136.884 43.1569 137.079 42.975 137.313 42.8572C137.575 42.7292 137.864 42.6649 138.155 42.6694C138.567 42.6509 138.969 42.8005 139.269 43.0838Z" fill="#2062AF"/>
<path d="M18.4016 22.8175C21.9606 20.5499 26.3376 19.9649 30.3672 21.2182C34.2377 22.3472 36.7914 26.0292 36.4925 30.0499C36.3112 33.3715 36.35 36.7061 36.3371 40.0406C36.3371 40.2414 36.3759 40.4421 36.3371 40.6428C36.0911 40.4227 36.1493 40.1183 36.1493 39.8464C36.1493 38.4996 36.1493 37.1593 36.1493 35.819C36.1493 35.1715 36.1493 35.1715 35.5666 35.3981C33.9314 36.1431 32.1031 36.3538 30.3413 36.0003C29.4439 35.8896 28.6199 35.4487 28.0298 34.7636C28.0298 33.4212 28.0298 32.0787 28.0298 30.7362C28.0298 28.8844 26.942 27.7966 25.129 27.7966C24.3151 27.7819 23.5114 27.9806 22.7981 28.3729C22.3969 28.5748 22.1585 29.0002 22.1959 29.4477C22.1959 34.796 22.1247 40.1442 22.1117 45.4925C22.1117 46.0299 21.924 46.14 21.4642 46.2436C20.0221 46.5032 18.5501 46.5534 17.0937 46.3925C15.0541 46.1011 14.1541 45.0522 14.1411 42.909C14.1411 39.1924 14.1411 35.4694 14.1411 31.7463C14.2055 30.8825 14.1773 30.0142 14.0569 29.1564C13.9742 28.7088 14.0425 28.2464 14.2512 27.842C15.0061 26.0432 16.1779 24.4497 17.6699 23.193C17.8582 22.9806 18.1193 22.8466 18.4016 22.8175Z" fill="#227CFE"/>
<path d="M18.4013 22.8175C16.531 24.2093 15.0922 26.1015 14.2509 28.2758C14.1408 28.5607 14.2509 28.8844 14.0502 29.1369C13.5084 28.2181 12.6077 27.5671 11.5653 27.3409C10.5228 27.1147 9.43331 27.3339 8.55943 27.9456C8.28428 28.1515 8.14691 28.4936 8.20332 28.8326C8.20332 34.4269 8.20332 40.0212 8.20332 45.6155C8.20332 46.1011 8.10619 46.263 7.60762 46.263C6.0148 46.3407 4.42197 46.6126 2.82267 46.3342C1.1537 46.1964 -0.098312 44.7487 0.00608038 43.0773C0.00608038 37.8068 0.0384549 32.5427 0.00608038 27.2722C-0.0379875 25.6046 0.837511 24.0476 2.28525 23.2189C5.6446 20.9573 9.7633 20.1191 13.7394 20.8879C15.41 21.2021 16.9973 21.8591 18.4013 22.8175Z" fill="#2062AF"/>
<path d="M33.4683 6.8051C36.2762 6.74189 38.8424 8.38642 39.958 10.964C41.0736 13.5415 40.5161 16.538 38.5482 18.5419C36.5802 20.5457 33.5942 21.1573 30.9969 20.0884C28.3996 19.0196 26.709 16.4835 26.7214 13.6749C26.6891 9.91546 29.7088 6.8407 33.4683 6.8051Z" fill="#FAA61A"/>
<path d="M28.042 34.7636C30.7679 36.6219 33.5198 36.1881 36.3558 34.8478V40.6428C36.3558 42.3478 36.3558 44.0507 36.3558 45.7515C36.3558 45.9846 36.3234 46.127 36.0579 46.1594C34.2579 46.386 32.4579 46.7227 30.6514 46.2436C29.0749 45.8979 27.9695 44.4767 28.0226 42.8637C27.9902 40.1442 28.0291 37.4636 28.042 34.7636Z" fill="#2062AF"/>
<path d="M28.496 4.36407C28.5361 5.53666 28.1045 6.67638 27.2976 7.52822C26.4908 8.38006 25.3762 8.8729 24.2031 8.89648C21.7464 8.89648 19.7549 6.90493 19.7549 4.44824C19.7549 1.99154 21.7464 0 24.2031 0C26.5826 0.0457569 28.4894 1.98424 28.496 4.36407Z" fill="#FAA61A"/>
</svg>
